# Blender 4.2.3 LTS
# www.blender.org
mtllib raindrop.mtl
o Object_2
v -0.069642 -0.005441 -0.022686
v -0.072705 -0.012907 0.000005
v -0.069422 0.003143 0.022501
v -0.066254 -0.022638 0.021369
v -0.067934 0.034272 -0.007091
v -0.059177 0.034271 -0.034109
v -0.050167 -0.004075 -0.054316
v -0.064945 0.034271 0.021154
v -0.050534 -0.003215 0.053983
v -0.045493 -0.050537 0.028466
v -0.054316 -0.049193 0.000857
v -0.060164 -0.036573 -0.019816
v -0.040187 0.034271 -0.055229
v -0.046470 -0.022968 0.052194
v -0.047693 0.049985 0.042612
v -0.019904 -0.035726 0.061257
v -0.015283 -0.053621 0.047037
v -0.018473 -0.066297 0.026152
v -0.026651 -0.068442 -0.002912
v -0.046903 -0.036573 -0.042573
v -0.035279 -0.022969 -0.060325
v -0.049272 0.077405 -0.010359
v -0.038760 0.073850 -0.034266
v -0.015325 0.076794 -0.048331
v -0.015579 0.002471 -0.071259
v -0.014274 0.033035 -0.067152
v -0.040108 0.034271 0.055287
v -0.015758 -0.004715 0.071506
v -0.029710 -0.060768 -0.029174
v -0.048899 0.074453 0.015978
v 0.000235 -0.072469 -0.006680
v -0.007693 -0.022968 -0.069459
v 0.014776 -0.004958 -0.071815
v 0.014124 0.035527 -0.066448
v 0.015581 0.079163 -0.046871
v -0.014153 0.034272 0.066820
v 0.021238 -0.004443 0.070778
v 0.019499 -0.037900 0.060012
v 0.014866 -0.060345 0.038921
v 0.007140 -0.071882 0.012396
v -0.016500 -0.049076 -0.052069
v 0.000976 0.048989 0.064248
v 0.025161 -0.067661 -0.012426
v 0.007126 -0.067642 -0.028173
v -0.012585 0.140795 -0.009205
v -0.001976 0.133253 -0.019007
v 0.043096 -0.005441 -0.059224
v 0.040108 0.034271 -0.055287
v -0.011625 0.145989 0.005740
v 0.027826 0.034272 0.062378
v 0.036841 -0.060533 0.019949
v 0.020242 -0.043834 -0.055999
v 0.010293 0.136940 -0.014094
v 0.039780 0.079601 -0.029048
v -0.020846 0.074453 0.047030
v 0.051453 -0.007758 0.052434
v 0.046903 -0.036573 0.042573
v 0.053138 -0.050537 -0.007502
v 0.041961 -0.044734 -0.041406
v 0.067160 -0.004075 -0.030927
v 0.055016 0.033984 -0.039996
v 0.050792 0.034271 0.045667
v 0.060164 -0.036573 0.019816
v 0.064945 0.034271 -0.021154
v 0.018376 0.133975 -0.003868
v 0.069642 -0.005441 0.022686
v 0.072705 -0.012907 -0.000005
v 0.066254 -0.022638 -0.021369
v 0.051151 0.074454 -0.005462
v 0.021267 0.073031 0.047599
v 0.060619 0.049313 0.020877
v -0.003783 0.171731 -0.000840
v 0.002115 0.168395 -0.004612
v 0.003213 0.171182 0.002580
v 0.067934 0.034272 0.007091
v 0.015328 0.136254 0.008958
v 0.038760 0.073850 0.034266
v 0.000577 0.186299 -0.000818
v -0.002140 0.171691 0.003416
v -0.003519 0.134502 0.018291
v 0.008209 0.130860 0.018393
v 0.000000 0.196840 -0.000000
vn -0.9424 0.0414 0.3319
vn -0.9842 -0.1769 -0.0077
vn -0.8887 -0.3348 0.3134
vn -0.9348 -0.0828 -0.3453
vn -0.9608 0.2623 -0.0900
vn -0.8389 0.2583 -0.4790
vn -0.6862 -0.0568 -0.7251
vn -0.9181 0.2543 0.3040
vn -0.6836 -0.0330 0.7292
vn -0.6279 -0.3456 0.6973
vn -0.6237 -0.6768 0.3910
vn -0.7393 -0.6734 -0.0017
vn -0.8179 -0.4946 -0.2940
vn -0.5586 0.2519 -0.7902
vn -0.7069 0.3528 0.6130
vn -0.2702 -0.4801 0.8345
vn -0.2187 -0.7132 0.6660
vn -0.2727 -0.8927 0.3589
vn -0.3671 -0.9285 -0.0561
vn -0.6588 -0.4969 -0.5649
vn -0.4613 -0.3153 -0.8293
vn -0.8789 0.4441 -0.1741
vn -0.6710 0.4419 -0.5954
vn -0.2608 0.4451 -0.8567
vn -0.2331 0.0144 -0.9723
vn -0.2078 0.2438 -0.9473
vn -0.5438 0.2322 0.8065
vn -0.1940 -0.0866 0.9772
vn -0.3988 -0.8280 -0.3942
vn -0.8602 0.4406 0.2570
vn 0.1481 -0.9726 0.1791
vn -0.0399 -0.9863 -0.1603
vn -0.0861 -0.3285 -0.9406
vn 0.2262 -0.0832 -0.9705
vn 0.1924 0.2723 -0.9428
vn 0.2734 0.4512 -0.8495
vn -0.2096 0.2242 0.9518
vn 0.2778 -0.0826 0.9571
vn 0.2388 -0.5189 0.8208
vn 0.2182 -0.8194 0.5301
vn -0.2001 -0.6777 -0.7076
vn 0.0258 0.3463 0.9378
vn 0.3785 -0.9123 -0.1567
vn 0.1025 -0.9026 -0.4180
vn -0.7325 0.4664 -0.4959
vn -0.1081 0.4709 -0.8755
vn 0.5930 -0.1065 -0.7982
vn 0.5538 0.2544 -0.7928
vn -0.8352 0.4135 0.3625
vn 0.4020 0.2494 0.8810
vn 0.7004 -0.1152 0.7044
vn 0.5104 -0.8103 0.2879
vn 0.2666 -0.5873 -0.7642
vn 0.5255 0.4421 -0.7269
vn 0.7114 0.4525 -0.5377
vn -0.3612 0.4569 0.8129
vn 0.6240 -0.5068 0.5948
vn 0.7233 -0.6830 -0.1016
vn 0.5911 -0.5880 -0.5522
vn 0.8983 -0.0588 -0.4355
vn 0.7767 0.2540 -0.5764
vn 0.7246 0.2426 0.6451
vn 0.8302 -0.4855 0.2740
vn 0.9281 0.2516 -0.2743
vn 0.8688 0.4609 -0.1811
vn 0.9367 -0.0711 0.3430
vn 0.9863 -0.1648 0.0001
vn 0.8793 -0.3599 -0.3118
vn 0.8870 0.4511 -0.0985
vn 0.3637 0.4493 0.8160
vn 0.8840 0.3467 0.3135
vn -0.8834 0.3240 -0.3387
vn 0.3483 0.4325 -0.8317
vn 0.7903 0.3672 0.4905
vn 0.9715 0.2253 0.0732
vn 0.7968 0.4274 0.4272
vn 0.6680 0.4419 0.5987
vn 0.4439 0.1186 -0.8882
vn -0.1886 0.4533 0.8712
vn 0.3652 0.4479 0.8161
vn -0.0907 0.9959 -0.0074
vn -0.4527 0.3072 0.8371
s 1
usemtl Material.001
f 3//1 2//2 4//3
f 1//4 2//2 5//5
f 6//6 1//4 5//5
f 5//5 2//2 3//1
f 7//7 1//4 6//6
f 8//8 5//5 3//1
f 9//9 3//1 4//3
f 9//9 4//3 14//10
f 14//10 4//3 10//11
f 10//11 4//3 11//12
f 4//3 2//2 11//12
f 11//12 2//2 12//13
f 2//2 1//4 12//13
f 13//14 7//7 6//6
f 8//8 3//1 9//9
f 12//13 1//4 7//7
f 15//15 8//8 9//9
f 16//16 14//10 10//11
f 16//16 10//11 17//17
f 17//17 10//11 18//18
f 18//18 10//11 19//19
f 10//11 11//12 19//19
f 20//20 12//13 7//7
f 20//20 7//7 21//21
f 6//6 5//5 22//22
f 23//23 6//6 22//22
f 13//14 6//6 23//23
f 24//24 13//14 23//23
f 25//25 7//7 26//26
f 26//26 7//7 13//14
f 26//26 13//14 24//24
f 22//22 5//5 8//8
f 27//27 15//15 9//9
f 28//28 9//9 14//10
f 28//28 14//10 16//16
f 19//19 11//12 29//29
f 11//12 12//13 29//29
f 29//29 12//13 20//20
f 21//21 7//7 25//25
f 22//22 8//8 30//30
f 27//27 9//9 28//28
f 18//18 19//19 40//31
f 40//31 19//19 31//32
f 32//33 21//21 25//25
f 25//25 26//26 33//34
f 33//34 26//26 34//35
f 26//26 24//24 34//35
f 34//35 24//24 35//36
f 30//30 8//8 15//15
f 36//37 27//27 28//28
f 37//38 28//28 16//16
f 38//39 37//38 16//16
f 38//39 16//16 17//17
f 39//40 38//39 17//17
f 17//17 18//18 39//40
f 39//40 18//18 40//31
f 29//29 20//20 41//41
f 41//41 20//20 21//21
f 25//25 33//34 32//33
f 36//37 28//28 37//38
f 42//42 36//37 37//38
f 40//31 31//32 43//43
f 43//43 31//32 44//44
f 31//32 19//19 44//44
f 41//41 21//21 32//33
f 23//23 22//22 45//45
f 24//24 23//23 45//45
f 46//46 24//24 45//45
f 35//36 24//24 46//46
f 47//47 33//34 48//48
f 33//34 34//35 48//48
f 48//48 34//35 35//36
f 45//45 22//22 49//49
f 49//49 22//22 30//30
f 50//50 42//42 37//38
f 56//51 37//38 38//39
f 39//40 40//31 51//52
f 51//52 40//31 43//43
f 19//19 29//29 44//44
f 41//41 32//33 52//53
f 52//53 32//33 33//34
f 47//47 52//53 33//34
f 35//36 46//46 53//54
f 48//48 35//36 54//55
f 54//55 35//36 53//54
f 55//56 15//15 27//27
f 55//56 27//27 36//37
f 56//51 50//50 37//38
f 56//51 38//39 57//57
f 57//57 38//39 51//52
f 38//39 39//40 51//52
f 51//52 43//43 58//58
f 58//58 43//43 59//59
f 43//43 44//44 59//59
f 59//59 44//44 52//53
f 41//41 52//53 44//44
f 44//44 29//29 41//41
f 60//60 47//47 61//61
f 47//47 48//48 61//61
f 61//61 48//48 54//55
f 62//62 50//50 56//51
f 57//57 51//52 63//63
f 63//63 51//52 58//58
f 59//59 52//53 47//47
f 60//60 59//59 47//47
f 60//60 61//61 64//64
f 64//64 61//61 54//55
f 53//54 65//65 54//55
f 30//30 15//15 49//49
f 42//42 55//56 36//37
f 66//66 62//62 56//51
f 66//66 56//51 63//63
f 56//51 57//57 63//63
f 63//63 58//58 67//67
f 67//67 58//58 68//68
f 58//58 59//59 68//68
f 68//68 59//59 60//60
f 64//64 54//55 69//69
f 54//55 65//65 69//69
f 70//70 42//42 50//50
f 71//71 62//62 66//66
f 66//66 63//63 67//67
f 45//45 49//49 72//72
f 46//46 45//45 73//73
f 73//73 45//45 72//72
f 53//54 46//46 73//73
f 53//54 73//73 65//65
f 65//65 73//73 74//74
f 67//67 68//68 60//60
f 67//67 60//60 75//75
f 60//60 64//64 75//75
f 64//64 69//69 75//75
f 49//49 15//15 55//56
f 62//62 70//70 50//50
f 75//75 71//71 66//66
f 67//67 75//75 66//66
f 69//69 71//71 75//75
f 69//69 76//76 71//71
f 65//65 76//76 69//69
f 65//65 74//74 76//76
f 77//77 70//70 62//62
f 73//73 72//72 78//78
f 73//73 78//78 74//74
f 80//79 49//49 55//56
f 80//79 55//56 42//42
f 70//70 80//79 42//42
f 71//71 77//77 62//62
f 76//76 77//77 71//71
f 81//80 80//79 70//70
f 78//78 72//72 82//81
f 78//78 82//81 74//74
f 72//72 49//49 79//82
f 79//82 49//49 80//79
f 77//77 81//80 70//70
f 76//76 81//80 77//77
f 76//76 74//74 81//80
f 82//81 72//72 79//82
f 74//74 79//82 81//80
f 74//74 82//81 79//82
f 81//80 79//82 80//79
